<?xml version="1.0" encoding="utf-8"?>
<!-- Generator: Adobe Illustrator 23.0.4, SVG Export Plug-In . SVG Version: 6.00 Build 0)  -->
<svg version="1.1" xmlns="http://www.w3.org/2000/svg" xmlns:xlink="http://www.w3.org/1999/xlink" x="0px" y="0px"
	 viewBox="0 0 1920 1080" style="enable-background:new 0 0 1920 1080;" xml:space="preserve">
<style type="text/css">
	.st0{display:none;}
	.st1{display:inline;fill:none;stroke:#FFFFFF;stroke-miterlimit:10;}
	.st2{fill:none;stroke:#FFFFFF;stroke-miterlimit:10;}
</style>
<g id="Ebene_2" class="st0">
	<rect x="62.5" y="59.5" class="st1" width="94" height="94"/>
</g>
<g id="Ebene_1">
	<g>
		<g>
			<line class="st2" x1="45" y1="59.5" x2="80" y2="59.5"/>
		</g>
		<g>
			<line class="st2" x1="62.5" y1="77" x2="62.5" y2="42"/>
		</g>
	</g>
	<g>
		<g>
			<line class="st2" x1="139" y1="59.5" x2="174" y2="59.5"/>
		</g>
		<g>
			<line class="st2" x1="156.5" y1="77" x2="156.5" y2="42"/>
		</g>
	</g>
	<g>
		<g>
			<line class="st2" x1="233" y1="59.5" x2="268" y2="59.5"/>
		</g>
		<g>
			<line class="st2" x1="250.5" y1="77" x2="250.5" y2="42"/>
		</g>
	</g>
	<g>
		<g>
			<line class="st2" x1="327" y1="59.5" x2="362" y2="59.5"/>
		</g>
		<g>
			<line class="st2" x1="344.5" y1="77" x2="344.5" y2="42"/>
		</g>
	</g>
	<g>
		<g>
			<line class="st2" x1="421" y1="59.5" x2="456" y2="59.5"/>
		</g>
		<g>
			<line class="st2" x1="438.5" y1="77" x2="438.5" y2="42"/>
		</g>
	</g>
	<g>
		<g>
			<line class="st2" x1="515" y1="59.5" x2="550" y2="59.5"/>
		</g>
		<g>
			<line class="st2" x1="532.5" y1="77" x2="532.5" y2="42"/>
		</g>
	</g>
	<g>
		<g>
			<line class="st2" x1="609" y1="59.5" x2="644" y2="59.5"/>
		</g>
		<g>
			<line class="st2" x1="626.5" y1="77" x2="626.5" y2="42"/>
		</g>
	</g>
	<g>
		<g>
			<line class="st2" x1="703" y1="59.5" x2="738" y2="59.5"/>
		</g>
		<g>
			<line class="st2" x1="720.5" y1="77" x2="720.5" y2="42"/>
		</g>
	</g>
	<g>
		<g>
			<line class="st2" x1="797" y1="59.5" x2="832" y2="59.5"/>
		</g>
		<g>
			<line class="st2" x1="814.5" y1="77" x2="814.5" y2="42"/>
		</g>
	</g>
	<g>
		<g>
			<line class="st2" x1="891" y1="59.5" x2="926" y2="59.5"/>
		</g>
		<g>
			<line class="st2" x1="908.5" y1="77" x2="908.5" y2="42"/>
		</g>
	</g>
	<g>
		<g>
			<line class="st2" x1="985" y1="59.5" x2="1020" y2="59.5"/>
		</g>
		<g>
			<line class="st2" x1="1002.5" y1="77" x2="1002.5" y2="42"/>
		</g>
	</g>
	<g>
		<g>
			<line class="st2" x1="1079" y1="59.5" x2="1114" y2="59.5"/>
		</g>
		<g>
			<line class="st2" x1="1096.5" y1="77" x2="1096.5" y2="42"/>
		</g>
	</g>
	<g>
		<g>
			<line class="st2" x1="1173" y1="59.5" x2="1208" y2="59.5"/>
		</g>
		<g>
			<line class="st2" x1="1190.5" y1="77" x2="1190.5" y2="42"/>
		</g>
	</g>
	<g>
		<g>
			<line class="st2" x1="1267" y1="59.5" x2="1302" y2="59.5"/>
		</g>
		<g>
			<line class="st2" x1="1284.5" y1="77" x2="1284.5" y2="42"/>
		</g>
	</g>
	<g>
		<g>
			<line class="st2" x1="1361" y1="59.5" x2="1396" y2="59.5"/>
		</g>
		<g>
			<line class="st2" x1="1378.5" y1="77" x2="1378.5" y2="42"/>
		</g>
	</g>
	<g>
		<g>
			<line class="st2" x1="1455" y1="59.5" x2="1490" y2="59.5"/>
		</g>
		<g>
			<line class="st2" x1="1472.5" y1="77" x2="1472.5" y2="42"/>
		</g>
	</g>
	<g>
		<g>
			<line class="st2" x1="1549" y1="59.5" x2="1584" y2="59.5"/>
		</g>
		<g>
			<line class="st2" x1="1566.5" y1="77" x2="1566.5" y2="42"/>
		</g>
	</g>
	<g>
		<g>
			<line class="st2" x1="1643" y1="59.5" x2="1678" y2="59.5"/>
		</g>
		<g>
			<line class="st2" x1="1660.5" y1="77" x2="1660.5" y2="42"/>
		</g>
	</g>
	<g>
		<g>
			<line class="st2" x1="1737" y1="59.5" x2="1772" y2="59.5"/>
		</g>
		<g>
			<line class="st2" x1="1754.5" y1="77" x2="1754.5" y2="42"/>
		</g>
	</g>
	<g>
		<g>
			<line class="st2" x1="1831" y1="59.5" x2="1866" y2="59.5"/>
		</g>
		<g>
			<line class="st2" x1="1848.5" y1="77" x2="1848.5" y2="42"/>
		</g>
	</g>
	<g>
		<g>
			<line class="st2" x1="45" y1="153.5" x2="80" y2="153.5"/>
		</g>
		<g>
			<line class="st2" x1="62.5" y1="171" x2="62.5" y2="136"/>
		</g>
	</g>
	<g>
		<g>
			<line class="st2" x1="139" y1="153.5" x2="174" y2="153.5"/>
		</g>
		<g>
			<line class="st2" x1="156.5" y1="171" x2="156.5" y2="136"/>
		</g>
	</g>
	<g>
		<g>
			<line class="st2" x1="233" y1="153.5" x2="268" y2="153.5"/>
		</g>
		<g>
			<line class="st2" x1="250.5" y1="171" x2="250.5" y2="136"/>
		</g>
	</g>
	<g>
		<g>
			<line class="st2" x1="327" y1="153.5" x2="362" y2="153.5"/>
		</g>
		<g>
			<line class="st2" x1="344.5" y1="171" x2="344.5" y2="136"/>
		</g>
	</g>
	<g>
		<g>
			<line class="st2" x1="421" y1="153.5" x2="456" y2="153.5"/>
		</g>
		<g>
			<line class="st2" x1="438.5" y1="171" x2="438.5" y2="136"/>
		</g>
	</g>
	<g>
		<g>
			<line class="st2" x1="515" y1="153.5" x2="550" y2="153.5"/>
		</g>
		<g>
			<line class="st2" x1="532.5" y1="171" x2="532.5" y2="136"/>
		</g>
	</g>
	<g>
		<g>
			<line class="st2" x1="609" y1="153.5" x2="644" y2="153.5"/>
		</g>
		<g>
			<line class="st2" x1="626.5" y1="171" x2="626.5" y2="136"/>
		</g>
	</g>
	<g>
		<g>
			<line class="st2" x1="703" y1="153.5" x2="738" y2="153.5"/>
		</g>
		<g>
			<line class="st2" x1="720.5" y1="171" x2="720.5" y2="136"/>
		</g>
	</g>
	<g>
		<g>
			<line class="st2" x1="797" y1="153.5" x2="832" y2="153.5"/>
		</g>
		<g>
			<line class="st2" x1="814.5" y1="171" x2="814.5" y2="136"/>
		</g>
	</g>
	<g>
		<g>
			<line class="st2" x1="891" y1="153.5" x2="926" y2="153.5"/>
		</g>
		<g>
			<line class="st2" x1="908.5" y1="171" x2="908.5" y2="136"/>
		</g>
	</g>
	<g>
		<g>
			<line class="st2" x1="985" y1="153.5" x2="1020" y2="153.5"/>
		</g>
		<g>
			<line class="st2" x1="1002.5" y1="171" x2="1002.5" y2="136"/>
		</g>
	</g>
	<g>
		<g>
			<line class="st2" x1="1079" y1="153.5" x2="1114" y2="153.5"/>
		</g>
		<g>
			<line class="st2" x1="1096.5" y1="171" x2="1096.5" y2="136"/>
		</g>
	</g>
	<g>
		<g>
			<line class="st2" x1="1173" y1="153.5" x2="1208" y2="153.5"/>
		</g>
		<g>
			<line class="st2" x1="1190.5" y1="171" x2="1190.5" y2="136"/>
		</g>
	</g>
	<g>
		<g>
			<line class="st2" x1="1267" y1="153.5" x2="1302" y2="153.5"/>
		</g>
		<g>
			<line class="st2" x1="1284.5" y1="171" x2="1284.5" y2="136"/>
		</g>
	</g>
	<g>
		<g>
			<line class="st2" x1="1361" y1="153.5" x2="1396" y2="153.5"/>
		</g>
		<g>
			<line class="st2" x1="1378.5" y1="171" x2="1378.5" y2="136"/>
		</g>
	</g>
	<g>
		<g>
			<line class="st2" x1="1455" y1="153.5" x2="1490" y2="153.5"/>
		</g>
		<g>
			<line class="st2" x1="1472.5" y1="171" x2="1472.5" y2="136"/>
		</g>
	</g>
	<g>
		<g>
			<line class="st2" x1="1549" y1="153.5" x2="1584" y2="153.5"/>
		</g>
		<g>
			<line class="st2" x1="1566.5" y1="171" x2="1566.5" y2="136"/>
		</g>
	</g>
	<g>
		<g>
			<line class="st2" x1="1643" y1="153.5" x2="1678" y2="153.5"/>
		</g>
		<g>
			<line class="st2" x1="1660.5" y1="171" x2="1660.5" y2="136"/>
		</g>
	</g>
	<g>
		<g>
			<line class="st2" x1="1737" y1="153.5" x2="1772" y2="153.5"/>
		</g>
		<g>
			<line class="st2" x1="1754.5" y1="171" x2="1754.5" y2="136"/>
		</g>
	</g>
	<g>
		<g>
			<line class="st2" x1="1831" y1="153.5" x2="1866" y2="153.5"/>
		</g>
		<g>
			<line class="st2" x1="1848.5" y1="171" x2="1848.5" y2="136"/>
		</g>
	</g>
	<g>
		<g>
			<line class="st2" x1="45" y1="247.5" x2="80" y2="247.5"/>
		</g>
		<g>
			<line class="st2" x1="62.5" y1="265" x2="62.5" y2="230"/>
		</g>
	</g>
	<g>
		<g>
			<line class="st2" x1="139" y1="247.5" x2="174" y2="247.5"/>
		</g>
		<g>
			<line class="st2" x1="156.5" y1="265" x2="156.5" y2="230"/>
		</g>
	</g>
	<g>
		<g>
			<line class="st2" x1="233" y1="247.5" x2="268" y2="247.5"/>
		</g>
		<g>
			<line class="st2" x1="250.5" y1="265" x2="250.5" y2="230"/>
		</g>
	</g>
	<g>
		<g>
			<line class="st2" x1="327" y1="247.5" x2="362" y2="247.5"/>
		</g>
		<g>
			<line class="st2" x1="344.5" y1="265" x2="344.5" y2="230"/>
		</g>
	</g>
	<g>
		<g>
			<line class="st2" x1="421" y1="247.5" x2="456" y2="247.5"/>
		</g>
		<g>
			<line class="st2" x1="438.5" y1="265" x2="438.5" y2="230"/>
		</g>
	</g>
	<g>
		<g>
			<line class="st2" x1="515" y1="247.5" x2="550" y2="247.5"/>
		</g>
		<g>
			<line class="st2" x1="532.5" y1="265" x2="532.5" y2="230"/>
		</g>
	</g>
	<g>
		<g>
			<line class="st2" x1="609" y1="247.5" x2="644" y2="247.5"/>
		</g>
		<g>
			<line class="st2" x1="626.5" y1="265" x2="626.5" y2="230"/>
		</g>
	</g>
	<g>
		<g>
			<line class="st2" x1="703" y1="247.5" x2="738" y2="247.5"/>
		</g>
		<g>
			<line class="st2" x1="720.5" y1="265" x2="720.5" y2="230"/>
		</g>
	</g>
	<g>
		<g>
			<line class="st2" x1="797" y1="247.5" x2="832" y2="247.5"/>
		</g>
		<g>
			<line class="st2" x1="814.5" y1="265" x2="814.5" y2="230"/>
		</g>
	</g>
	<g>
		<g>
			<line class="st2" x1="891" y1="247.5" x2="926" y2="247.5"/>
		</g>
		<g>
			<line class="st2" x1="908.5" y1="265" x2="908.5" y2="230"/>
		</g>
	</g>
	<g>
		<g>
			<line class="st2" x1="985" y1="247.5" x2="1020" y2="247.5"/>
		</g>
		<g>
			<line class="st2" x1="1002.5" y1="265" x2="1002.5" y2="230"/>
		</g>
	</g>
	<g>
		<g>
			<line class="st2" x1="1079" y1="247.5" x2="1114" y2="247.5"/>
		</g>
		<g>
			<line class="st2" x1="1096.5" y1="265" x2="1096.5" y2="230"/>
		</g>
	</g>
	<g>
		<g>
			<line class="st2" x1="1173" y1="247.5" x2="1208" y2="247.5"/>
		</g>
		<g>
			<line class="st2" x1="1190.5" y1="265" x2="1190.5" y2="230"/>
		</g>
	</g>
	<g>
		<g>
			<line class="st2" x1="1267" y1="247.5" x2="1302" y2="247.5"/>
		</g>
		<g>
			<line class="st2" x1="1284.5" y1="265" x2="1284.5" y2="230"/>
		</g>
	</g>
	<g>
		<g>
			<line class="st2" x1="1361" y1="247.5" x2="1396" y2="247.5"/>
		</g>
		<g>
			<line class="st2" x1="1378.5" y1="265" x2="1378.5" y2="230"/>
		</g>
	</g>
	<g>
		<g>
			<line class="st2" x1="1455" y1="247.5" x2="1490" y2="247.5"/>
		</g>
		<g>
			<line class="st2" x1="1472.5" y1="265" x2="1472.5" y2="230"/>
		</g>
	</g>
	<g>
		<g>
			<line class="st2" x1="1549" y1="247.5" x2="1584" y2="247.5"/>
		</g>
		<g>
			<line class="st2" x1="1566.5" y1="265" x2="1566.5" y2="230"/>
		</g>
	</g>
	<g>
		<g>
			<line class="st2" x1="1643" y1="247.5" x2="1678" y2="247.5"/>
		</g>
		<g>
			<line class="st2" x1="1660.5" y1="265" x2="1660.5" y2="230"/>
		</g>
	</g>
	<g>
		<g>
			<line class="st2" x1="1737" y1="247.5" x2="1772" y2="247.5"/>
		</g>
		<g>
			<line class="st2" x1="1754.5" y1="265" x2="1754.5" y2="230"/>
		</g>
	</g>
	<g>
		<g>
			<line class="st2" x1="1831" y1="247.5" x2="1866" y2="247.5"/>
		</g>
		<g>
			<line class="st2" x1="1848.5" y1="265" x2="1848.5" y2="230"/>
		</g>
	</g>
	<g>
		<g>
			<line class="st2" x1="45" y1="341.5" x2="80" y2="341.5"/>
		</g>
		<g>
			<line class="st2" x1="62.5" y1="359" x2="62.5" y2="324"/>
		</g>
	</g>
	<g>
		<g>
			<line class="st2" x1="139" y1="341.5" x2="174" y2="341.5"/>
		</g>
		<g>
			<line class="st2" x1="156.5" y1="359" x2="156.5" y2="324"/>
		</g>
	</g>
	<g>
		<g>
			<line class="st2" x1="233" y1="341.5" x2="268" y2="341.5"/>
		</g>
		<g>
			<line class="st2" x1="250.5" y1="359" x2="250.5" y2="324"/>
		</g>
	</g>
	<g>
		<g>
			<line class="st2" x1="327" y1="341.5" x2="362" y2="341.5"/>
		</g>
		<g>
			<line class="st2" x1="344.5" y1="359" x2="344.5" y2="324"/>
		</g>
	</g>
	<g>
		<g>
			<line class="st2" x1="421" y1="341.5" x2="456" y2="341.5"/>
		</g>
		<g>
			<line class="st2" x1="438.5" y1="359" x2="438.5" y2="324"/>
		</g>
	</g>
	<g>
		<g>
			<line class="st2" x1="515" y1="341.5" x2="550" y2="341.5"/>
		</g>
		<g>
			<line class="st2" x1="532.5" y1="359" x2="532.5" y2="324"/>
		</g>
	</g>
	<g>
		<g>
			<line class="st2" x1="609" y1="341.5" x2="644" y2="341.5"/>
		</g>
		<g>
			<line class="st2" x1="626.5" y1="359" x2="626.5" y2="324"/>
		</g>
	</g>
	<g>
		<g>
			<line class="st2" x1="703" y1="341.5" x2="738" y2="341.5"/>
		</g>
		<g>
			<line class="st2" x1="720.5" y1="359" x2="720.5" y2="324"/>
		</g>
	</g>
	<g>
		<g>
			<line class="st2" x1="797" y1="341.5" x2="832" y2="341.5"/>
		</g>
		<g>
			<line class="st2" x1="814.5" y1="359" x2="814.5" y2="324"/>
		</g>
	</g>
	<g>
		<g>
			<line class="st2" x1="891" y1="341.5" x2="926" y2="341.5"/>
		</g>
		<g>
			<line class="st2" x1="908.5" y1="359" x2="908.5" y2="324"/>
		</g>
	</g>
	<g>
		<g>
			<line class="st2" x1="985" y1="341.5" x2="1020" y2="341.5"/>
		</g>
		<g>
			<line class="st2" x1="1002.5" y1="359" x2="1002.5" y2="324"/>
		</g>
	</g>
	<g>
		<g>
			<line class="st2" x1="1079" y1="341.5" x2="1114" y2="341.5"/>
		</g>
		<g>
			<line class="st2" x1="1096.5" y1="359" x2="1096.5" y2="324"/>
		</g>
	</g>
	<g>
		<g>
			<line class="st2" x1="1173" y1="341.5" x2="1208" y2="341.5"/>
		</g>
		<g>
			<line class="st2" x1="1190.5" y1="359" x2="1190.5" y2="324"/>
		</g>
	</g>
	<g>
		<g>
			<line class="st2" x1="1267" y1="341.5" x2="1302" y2="341.5"/>
		</g>
		<g>
			<line class="st2" x1="1284.5" y1="359" x2="1284.5" y2="324"/>
		</g>
	</g>
	<g>
		<g>
			<line class="st2" x1="1361" y1="341.5" x2="1396" y2="341.5"/>
		</g>
		<g>
			<line class="st2" x1="1378.5" y1="359" x2="1378.5" y2="324"/>
		</g>
	</g>
	<g>
		<g>
			<line class="st2" x1="1455" y1="341.5" x2="1490" y2="341.5"/>
		</g>
		<g>
			<line class="st2" x1="1472.5" y1="359" x2="1472.5" y2="324"/>
		</g>
	</g>
	<g>
		<g>
			<line class="st2" x1="1549" y1="341.5" x2="1584" y2="341.5"/>
		</g>
		<g>
			<line class="st2" x1="1566.5" y1="359" x2="1566.5" y2="324"/>
		</g>
	</g>
	<g>
		<g>
			<line class="st2" x1="1643" y1="341.5" x2="1678" y2="341.5"/>
		</g>
		<g>
			<line class="st2" x1="1660.5" y1="359" x2="1660.5" y2="324"/>
		</g>
	</g>
	<g>
		<g>
			<line class="st2" x1="1737" y1="341.5" x2="1772" y2="341.5"/>
		</g>
		<g>
			<line class="st2" x1="1754.5" y1="359" x2="1754.5" y2="324"/>
		</g>
	</g>
	<g>
		<g>
			<line class="st2" x1="1831" y1="341.5" x2="1866" y2="341.5"/>
		</g>
		<g>
			<line class="st2" x1="1848.5" y1="359" x2="1848.5" y2="324"/>
		</g>
	</g>
	<g>
		<g>
			<line class="st2" x1="45" y1="435.5" x2="80" y2="435.5"/>
		</g>
		<g>
			<line class="st2" x1="62.5" y1="453" x2="62.5" y2="418"/>
		</g>
	</g>
	<g>
		<g>
			<line class="st2" x1="139" y1="435.5" x2="174" y2="435.5"/>
		</g>
		<g>
			<line class="st2" x1="156.5" y1="453" x2="156.5" y2="418"/>
		</g>
	</g>
	<g>
		<g>
			<line class="st2" x1="233" y1="435.5" x2="268" y2="435.5"/>
		</g>
		<g>
			<line class="st2" x1="250.5" y1="453" x2="250.5" y2="418"/>
		</g>
	</g>
	<g>
		<g>
			<line class="st2" x1="327" y1="435.5" x2="362" y2="435.5"/>
		</g>
		<g>
			<line class="st2" x1="344.5" y1="453" x2="344.5" y2="418"/>
		</g>
	</g>
	<g>
		<g>
			<line class="st2" x1="421" y1="435.5" x2="456" y2="435.5"/>
		</g>
		<g>
			<line class="st2" x1="438.5" y1="453" x2="438.5" y2="418"/>
		</g>
	</g>
	<g>
		<g>
			<line class="st2" x1="515" y1="435.5" x2="550" y2="435.5"/>
		</g>
		<g>
			<line class="st2" x1="532.5" y1="453" x2="532.5" y2="418"/>
		</g>
	</g>
	<g>
		<g>
			<line class="st2" x1="609" y1="435.5" x2="644" y2="435.5"/>
		</g>
		<g>
			<line class="st2" x1="626.5" y1="453" x2="626.5" y2="418"/>
		</g>
	</g>
	<g>
		<g>
			<line class="st2" x1="703" y1="435.5" x2="738" y2="435.5"/>
		</g>
		<g>
			<line class="st2" x1="720.5" y1="453" x2="720.5" y2="418"/>
		</g>
	</g>
	<g>
		<g>
			<line class="st2" x1="797" y1="435.5" x2="832" y2="435.5"/>
		</g>
		<g>
			<line class="st2" x1="814.5" y1="453" x2="814.5" y2="418"/>
		</g>
	</g>
	<g>
		<g>
			<line class="st2" x1="891" y1="435.5" x2="926" y2="435.5"/>
		</g>
		<g>
			<line class="st2" x1="908.5" y1="453" x2="908.5" y2="418"/>
		</g>
	</g>
	<g>
		<g>
			<line class="st2" x1="985" y1="435.5" x2="1020" y2="435.5"/>
		</g>
		<g>
			<line class="st2" x1="1002.5" y1="453" x2="1002.5" y2="418"/>
		</g>
	</g>
	<g>
		<g>
			<line class="st2" x1="1079" y1="435.5" x2="1114" y2="435.5"/>
		</g>
		<g>
			<line class="st2" x1="1096.5" y1="453" x2="1096.5" y2="418"/>
		</g>
	</g>
	<g>
		<g>
			<line class="st2" x1="1173" y1="435.5" x2="1208" y2="435.5"/>
		</g>
		<g>
			<line class="st2" x1="1190.5" y1="453" x2="1190.5" y2="418"/>
		</g>
	</g>
	<g>
		<g>
			<line class="st2" x1="1267" y1="435.5" x2="1302" y2="435.5"/>
		</g>
		<g>
			<line class="st2" x1="1284.5" y1="453" x2="1284.5" y2="418"/>
		</g>
	</g>
	<g>
		<g>
			<line class="st2" x1="1361" y1="435.5" x2="1396" y2="435.5"/>
		</g>
		<g>
			<line class="st2" x1="1378.5" y1="453" x2="1378.5" y2="418"/>
		</g>
	</g>
	<g>
		<g>
			<line class="st2" x1="1455" y1="435.5" x2="1490" y2="435.5"/>
		</g>
		<g>
			<line class="st2" x1="1472.5" y1="453" x2="1472.5" y2="418"/>
		</g>
	</g>
	<g>
		<g>
			<line class="st2" x1="1549" y1="435.5" x2="1584" y2="435.5"/>
		</g>
		<g>
			<line class="st2" x1="1566.5" y1="453" x2="1566.5" y2="418"/>
		</g>
	</g>
	<g>
		<g>
			<line class="st2" x1="1643" y1="435.5" x2="1678" y2="435.5"/>
		</g>
		<g>
			<line class="st2" x1="1660.5" y1="453" x2="1660.5" y2="418"/>
		</g>
	</g>
	<g>
		<g>
			<line class="st2" x1="1737" y1="435.5" x2="1772" y2="435.5"/>
		</g>
		<g>
			<line class="st2" x1="1754.5" y1="453" x2="1754.5" y2="418"/>
		</g>
	</g>
	<g>
		<g>
			<line class="st2" x1="1831" y1="435.5" x2="1866" y2="435.5"/>
		</g>
		<g>
			<line class="st2" x1="1848.5" y1="453" x2="1848.5" y2="418"/>
		</g>
	</g>
	<g>
		<g>
			<line class="st2" x1="45" y1="529.5" x2="80" y2="529.5"/>
		</g>
		<g>
			<line class="st2" x1="62.5" y1="547" x2="62.5" y2="512"/>
		</g>
	</g>
	<g>
		<g>
			<line class="st2" x1="139" y1="529.5" x2="174" y2="529.5"/>
		</g>
		<g>
			<line class="st2" x1="156.5" y1="547" x2="156.5" y2="512"/>
		</g>
	</g>
	<g>
		<g>
			<line class="st2" x1="233" y1="529.5" x2="268" y2="529.5"/>
		</g>
		<g>
			<line class="st2" x1="250.5" y1="547" x2="250.5" y2="512"/>
		</g>
	</g>
	<g>
		<g>
			<line class="st2" x1="327" y1="529.5" x2="362" y2="529.5"/>
		</g>
		<g>
			<line class="st2" x1="344.5" y1="547" x2="344.5" y2="512"/>
		</g>
	</g>
	<g>
		<g>
			<line class="st2" x1="421" y1="529.5" x2="456" y2="529.5"/>
		</g>
		<g>
			<line class="st2" x1="438.5" y1="547" x2="438.5" y2="512"/>
		</g>
	</g>
	<g>
		<g>
			<line class="st2" x1="515" y1="529.5" x2="550" y2="529.5"/>
		</g>
		<g>
			<line class="st2" x1="532.5" y1="547" x2="532.5" y2="512"/>
		</g>
	</g>
	<g>
		<g>
			<line class="st2" x1="609" y1="529.5" x2="644" y2="529.5"/>
		</g>
		<g>
			<line class="st2" x1="626.5" y1="547" x2="626.5" y2="512"/>
		</g>
	</g>
	<g>
		<g>
			<line class="st2" x1="703" y1="529.5" x2="738" y2="529.5"/>
		</g>
		<g>
			<line class="st2" x1="720.5" y1="547" x2="720.5" y2="512"/>
		</g>
	</g>
	<g>
		<g>
			<line class="st2" x1="797" y1="529.5" x2="832" y2="529.5"/>
		</g>
		<g>
			<line class="st2" x1="814.5" y1="547" x2="814.5" y2="512"/>
		</g>
	</g>
	<g>
		<g>
			<line class="st2" x1="891" y1="529.5" x2="926" y2="529.5"/>
		</g>
		<g>
			<line class="st2" x1="908.5" y1="547" x2="908.5" y2="512"/>
		</g>
	</g>
	<g>
		<g>
			<line class="st2" x1="985" y1="529.5" x2="1020" y2="529.5"/>
		</g>
		<g>
			<line class="st2" x1="1002.5" y1="547" x2="1002.5" y2="512"/>
		</g>
	</g>
	<g>
		<g>
			<line class="st2" x1="1079" y1="529.5" x2="1114" y2="529.5"/>
		</g>
		<g>
			<line class="st2" x1="1096.5" y1="547" x2="1096.5" y2="512"/>
		</g>
	</g>
	<g>
		<g>
			<line class="st2" x1="1173" y1="529.5" x2="1208" y2="529.5"/>
		</g>
		<g>
			<line class="st2" x1="1190.5" y1="547" x2="1190.5" y2="512"/>
		</g>
	</g>
	<g>
		<g>
			<line class="st2" x1="1267" y1="529.5" x2="1302" y2="529.5"/>
		</g>
		<g>
			<line class="st2" x1="1284.5" y1="547" x2="1284.5" y2="512"/>
		</g>
	</g>
	<g>
		<g>
			<line class="st2" x1="1361" y1="529.5" x2="1396" y2="529.5"/>
		</g>
		<g>
			<line class="st2" x1="1378.5" y1="547" x2="1378.5" y2="512"/>
		</g>
	</g>
	<g>
		<g>
			<line class="st2" x1="1455" y1="529.5" x2="1490" y2="529.5"/>
		</g>
		<g>
			<line class="st2" x1="1472.5" y1="547" x2="1472.5" y2="512"/>
		</g>
	</g>
	<g>
		<g>
			<line class="st2" x1="1549" y1="529.5" x2="1584" y2="529.5"/>
		</g>
		<g>
			<line class="st2" x1="1566.5" y1="547" x2="1566.5" y2="512"/>
		</g>
	</g>
	<g>
		<g>
			<line class="st2" x1="1643" y1="529.5" x2="1678" y2="529.5"/>
		</g>
		<g>
			<line class="st2" x1="1660.5" y1="547" x2="1660.5" y2="512"/>
		</g>
	</g>
	<g>
		<g>
			<line class="st2" x1="1737" y1="529.5" x2="1772" y2="529.5"/>
		</g>
		<g>
			<line class="st2" x1="1754.5" y1="547" x2="1754.5" y2="512"/>
		</g>
	</g>
	<g>
		<g>
			<line class="st2" x1="1831" y1="529.5" x2="1866" y2="529.5"/>
		</g>
		<g>
			<line class="st2" x1="1848.5" y1="547" x2="1848.5" y2="512"/>
		</g>
	</g>
	<g>
		<g>
			<line class="st2" x1="45" y1="623.5" x2="80" y2="623.5"/>
		</g>
		<g>
			<line class="st2" x1="62.5" y1="641" x2="62.5" y2="606"/>
		</g>
	</g>
	<g>
		<g>
			<line class="st2" x1="139" y1="623.5" x2="174" y2="623.5"/>
		</g>
		<g>
			<line class="st2" x1="156.5" y1="641" x2="156.5" y2="606"/>
		</g>
	</g>
	<g>
		<g>
			<line class="st2" x1="233" y1="623.5" x2="268" y2="623.5"/>
		</g>
		<g>
			<line class="st2" x1="250.5" y1="641" x2="250.5" y2="606"/>
		</g>
	</g>
	<g>
		<g>
			<line class="st2" x1="327" y1="623.5" x2="362" y2="623.5"/>
		</g>
		<g>
			<line class="st2" x1="344.5" y1="641" x2="344.5" y2="606"/>
		</g>
	</g>
	<g>
		<g>
			<line class="st2" x1="421" y1="623.5" x2="456" y2="623.5"/>
		</g>
		<g>
			<line class="st2" x1="438.5" y1="641" x2="438.5" y2="606"/>
		</g>
	</g>
	<g>
		<g>
			<line class="st2" x1="515" y1="623.5" x2="550" y2="623.5"/>
		</g>
		<g>
			<line class="st2" x1="532.5" y1="641" x2="532.5" y2="606"/>
		</g>
	</g>
	<g>
		<g>
			<line class="st2" x1="609" y1="623.5" x2="644" y2="623.5"/>
		</g>
		<g>
			<line class="st2" x1="626.5" y1="641" x2="626.5" y2="606"/>
		</g>
	</g>
	<g>
		<g>
			<line class="st2" x1="703" y1="623.5" x2="738" y2="623.5"/>
		</g>
		<g>
			<line class="st2" x1="720.5" y1="641" x2="720.5" y2="606"/>
		</g>
	</g>
	<g>
		<g>
			<line class="st2" x1="797" y1="623.5" x2="832" y2="623.5"/>
		</g>
		<g>
			<line class="st2" x1="814.5" y1="641" x2="814.5" y2="606"/>
		</g>
	</g>
	<g>
		<g>
			<line class="st2" x1="891" y1="623.5" x2="926" y2="623.5"/>
		</g>
		<g>
			<line class="st2" x1="908.5" y1="641" x2="908.5" y2="606"/>
		</g>
	</g>
	<g>
		<g>
			<line class="st2" x1="985" y1="623.5" x2="1020" y2="623.5"/>
		</g>
		<g>
			<line class="st2" x1="1002.5" y1="641" x2="1002.5" y2="606"/>
		</g>
	</g>
	<g>
		<g>
			<line class="st2" x1="1079" y1="623.5" x2="1114" y2="623.5"/>
		</g>
		<g>
			<line class="st2" x1="1096.5" y1="641" x2="1096.5" y2="606"/>
		</g>
	</g>
	<g>
		<g>
			<line class="st2" x1="1173" y1="623.5" x2="1208" y2="623.5"/>
		</g>
		<g>
			<line class="st2" x1="1190.5" y1="641" x2="1190.5" y2="606"/>
		</g>
	</g>
	<g>
		<g>
			<line class="st2" x1="1267" y1="623.5" x2="1302" y2="623.5"/>
		</g>
		<g>
			<line class="st2" x1="1284.5" y1="641" x2="1284.5" y2="606"/>
		</g>
	</g>
	<g>
		<g>
			<line class="st2" x1="1361" y1="623.5" x2="1396" y2="623.5"/>
		</g>
		<g>
			<line class="st2" x1="1378.5" y1="641" x2="1378.5" y2="606"/>
		</g>
	</g>
	<g>
		<g>
			<line class="st2" x1="1455" y1="623.5" x2="1490" y2="623.5"/>
		</g>
		<g>
			<line class="st2" x1="1472.5" y1="641" x2="1472.5" y2="606"/>
		</g>
	</g>
	<g>
		<g>
			<line class="st2" x1="1549" y1="623.5" x2="1584" y2="623.5"/>
		</g>
		<g>
			<line class="st2" x1="1566.5" y1="641" x2="1566.5" y2="606"/>
		</g>
	</g>
	<g>
		<g>
			<line class="st2" x1="1643" y1="623.5" x2="1678" y2="623.5"/>
		</g>
		<g>
			<line class="st2" x1="1660.5" y1="641" x2="1660.5" y2="606"/>
		</g>
	</g>
	<g>
		<g>
			<line class="st2" x1="1737" y1="623.5" x2="1772" y2="623.5"/>
		</g>
		<g>
			<line class="st2" x1="1754.5" y1="641" x2="1754.5" y2="606"/>
		</g>
	</g>
	<g>
		<g>
			<line class="st2" x1="1831" y1="623.5" x2="1866" y2="623.5"/>
		</g>
		<g>
			<line class="st2" x1="1848.5" y1="641" x2="1848.5" y2="606"/>
		</g>
	</g>
	<g>
		<g>
			<line class="st2" x1="45" y1="717.5" x2="80" y2="717.5"/>
		</g>
		<g>
			<line class="st2" x1="62.5" y1="735" x2="62.5" y2="700"/>
		</g>
	</g>
	<g>
		<g>
			<line class="st2" x1="139" y1="717.5" x2="174" y2="717.5"/>
		</g>
		<g>
			<line class="st2" x1="156.5" y1="735" x2="156.5" y2="700"/>
		</g>
	</g>
	<g>
		<g>
			<line class="st2" x1="233" y1="717.5" x2="268" y2="717.5"/>
		</g>
		<g>
			<line class="st2" x1="250.5" y1="735" x2="250.5" y2="700"/>
		</g>
	</g>
	<g>
		<g>
			<line class="st2" x1="327" y1="717.5" x2="362" y2="717.5"/>
		</g>
		<g>
			<line class="st2" x1="344.5" y1="735" x2="344.5" y2="700"/>
		</g>
	</g>
	<g>
		<g>
			<line class="st2" x1="421" y1="717.5" x2="456" y2="717.5"/>
		</g>
		<g>
			<line class="st2" x1="438.5" y1="735" x2="438.5" y2="700"/>
		</g>
	</g>
	<g>
		<g>
			<line class="st2" x1="515" y1="717.5" x2="550" y2="717.5"/>
		</g>
		<g>
			<line class="st2" x1="532.5" y1="735" x2="532.5" y2="700"/>
		</g>
	</g>
	<g>
		<g>
			<line class="st2" x1="609" y1="717.5" x2="644" y2="717.5"/>
		</g>
		<g>
			<line class="st2" x1="626.5" y1="735" x2="626.5" y2="700"/>
		</g>
	</g>
	<g>
		<g>
			<line class="st2" x1="703" y1="717.5" x2="738" y2="717.5"/>
		</g>
		<g>
			<line class="st2" x1="720.5" y1="735" x2="720.5" y2="700"/>
		</g>
	</g>
	<g>
		<g>
			<line class="st2" x1="797" y1="717.5" x2="832" y2="717.5"/>
		</g>
		<g>
			<line class="st2" x1="814.5" y1="735" x2="814.5" y2="700"/>
		</g>
	</g>
	<g>
		<g>
			<line class="st2" x1="891" y1="717.5" x2="926" y2="717.5"/>
		</g>
		<g>
			<line class="st2" x1="908.5" y1="735" x2="908.5" y2="700"/>
		</g>
	</g>
	<g>
		<g>
			<line class="st2" x1="985" y1="717.5" x2="1020" y2="717.5"/>
		</g>
		<g>
			<line class="st2" x1="1002.5" y1="735" x2="1002.5" y2="700"/>
		</g>
	</g>
	<g>
		<g>
			<line class="st2" x1="1079" y1="717.5" x2="1114" y2="717.5"/>
		</g>
		<g>
			<line class="st2" x1="1096.5" y1="735" x2="1096.5" y2="700"/>
		</g>
	</g>
	<g>
		<g>
			<line class="st2" x1="1173" y1="717.5" x2="1208" y2="717.5"/>
		</g>
		<g>
			<line class="st2" x1="1190.5" y1="735" x2="1190.5" y2="700"/>
		</g>
	</g>
	<g>
		<g>
			<line class="st2" x1="1267" y1="717.5" x2="1302" y2="717.5"/>
		</g>
		<g>
			<line class="st2" x1="1284.5" y1="735" x2="1284.5" y2="700"/>
		</g>
	</g>
	<g>
		<g>
			<line class="st2" x1="1361" y1="717.5" x2="1396" y2="717.5"/>
		</g>
		<g>
			<line class="st2" x1="1378.5" y1="735" x2="1378.5" y2="700"/>
		</g>
	</g>
	<g>
		<g>
			<line class="st2" x1="1455" y1="717.5" x2="1490" y2="717.5"/>
		</g>
		<g>
			<line class="st2" x1="1472.5" y1="735" x2="1472.5" y2="700"/>
		</g>
	</g>
	<g>
		<g>
			<line class="st2" x1="1549" y1="717.5" x2="1584" y2="717.5"/>
		</g>
		<g>
			<line class="st2" x1="1566.5" y1="735" x2="1566.5" y2="700"/>
		</g>
	</g>
	<g>
		<g>
			<line class="st2" x1="1643" y1="717.5" x2="1678" y2="717.5"/>
		</g>
		<g>
			<line class="st2" x1="1660.5" y1="735" x2="1660.5" y2="700"/>
		</g>
	</g>
	<g>
		<g>
			<line class="st2" x1="1737" y1="717.5" x2="1772" y2="717.5"/>
		</g>
		<g>
			<line class="st2" x1="1754.5" y1="735" x2="1754.5" y2="700"/>
		</g>
	</g>
	<g>
		<g>
			<line class="st2" x1="1831" y1="717.5" x2="1866" y2="717.5"/>
		</g>
		<g>
			<line class="st2" x1="1848.5" y1="735" x2="1848.5" y2="700"/>
		</g>
	</g>
	<g>
		<g>
			<line class="st2" x1="45" y1="811.5" x2="80" y2="811.5"/>
		</g>
		<g>
			<line class="st2" x1="62.5" y1="829" x2="62.5" y2="794"/>
		</g>
	</g>
	<g>
		<g>
			<line class="st2" x1="139" y1="811.5" x2="174" y2="811.5"/>
		</g>
		<g>
			<line class="st2" x1="156.5" y1="829" x2="156.5" y2="794"/>
		</g>
	</g>
	<g>
		<g>
			<line class="st2" x1="233" y1="811.5" x2="268" y2="811.5"/>
		</g>
		<g>
			<line class="st2" x1="250.5" y1="829" x2="250.5" y2="794"/>
		</g>
	</g>
	<g>
		<g>
			<line class="st2" x1="327" y1="811.5" x2="362" y2="811.5"/>
		</g>
		<g>
			<line class="st2" x1="344.5" y1="829" x2="344.5" y2="794"/>
		</g>
	</g>
	<g>
		<g>
			<line class="st2" x1="421" y1="811.5" x2="456" y2="811.5"/>
		</g>
		<g>
			<line class="st2" x1="438.5" y1="829" x2="438.5" y2="794"/>
		</g>
	</g>
	<g>
		<g>
			<line class="st2" x1="515" y1="811.5" x2="550" y2="811.5"/>
		</g>
		<g>
			<line class="st2" x1="532.5" y1="829" x2="532.5" y2="794"/>
		</g>
	</g>
	<g>
		<g>
			<line class="st2" x1="609" y1="811.5" x2="644" y2="811.5"/>
		</g>
		<g>
			<line class="st2" x1="626.5" y1="829" x2="626.5" y2="794"/>
		</g>
	</g>
	<g>
		<g>
			<line class="st2" x1="703" y1="811.5" x2="738" y2="811.5"/>
		</g>
		<g>
			<line class="st2" x1="720.5" y1="829" x2="720.5" y2="794"/>
		</g>
	</g>
	<g>
		<g>
			<line class="st2" x1="797" y1="811.5" x2="832" y2="811.5"/>
		</g>
		<g>
			<line class="st2" x1="814.5" y1="829" x2="814.5" y2="794"/>
		</g>
	</g>
	<g>
		<g>
			<line class="st2" x1="891" y1="811.5" x2="926" y2="811.5"/>
		</g>
		<g>
			<line class="st2" x1="908.5" y1="829" x2="908.5" y2="794"/>
		</g>
	</g>
	<g>
		<g>
			<line class="st2" x1="985" y1="811.5" x2="1020" y2="811.5"/>
		</g>
		<g>
			<line class="st2" x1="1002.5" y1="829" x2="1002.5" y2="794"/>
		</g>
	</g>
	<g>
		<g>
			<line class="st2" x1="1079" y1="811.5" x2="1114" y2="811.5"/>
		</g>
		<g>
			<line class="st2" x1="1096.5" y1="829" x2="1096.5" y2="794"/>
		</g>
	</g>
	<g>
		<g>
			<line class="st2" x1="1173" y1="811.5" x2="1208" y2="811.5"/>
		</g>
		<g>
			<line class="st2" x1="1190.5" y1="829" x2="1190.5" y2="794"/>
		</g>
	</g>
	<g>
		<g>
			<line class="st2" x1="1267" y1="811.5" x2="1302" y2="811.5"/>
		</g>
		<g>
			<line class="st2" x1="1284.5" y1="829" x2="1284.5" y2="794"/>
		</g>
	</g>
	<g>
		<g>
			<line class="st2" x1="1361" y1="811.5" x2="1396" y2="811.5"/>
		</g>
		<g>
			<line class="st2" x1="1378.5" y1="829" x2="1378.5" y2="794"/>
		</g>
	</g>
	<g>
		<g>
			<line class="st2" x1="1455" y1="811.5" x2="1490" y2="811.5"/>
		</g>
		<g>
			<line class="st2" x1="1472.5" y1="829" x2="1472.5" y2="794"/>
		</g>
	</g>
	<g>
		<g>
			<line class="st2" x1="1549" y1="811.5" x2="1584" y2="811.5"/>
		</g>
		<g>
			<line class="st2" x1="1566.5" y1="829" x2="1566.5" y2="794"/>
		</g>
	</g>
	<g>
		<g>
			<line class="st2" x1="1643" y1="811.5" x2="1678" y2="811.5"/>
		</g>
		<g>
			<line class="st2" x1="1660.5" y1="829" x2="1660.5" y2="794"/>
		</g>
	</g>
	<g>
		<g>
			<line class="st2" x1="1737" y1="811.5" x2="1772" y2="811.5"/>
		</g>
		<g>
			<line class="st2" x1="1754.5" y1="829" x2="1754.5" y2="794"/>
		</g>
	</g>
	<g>
		<g>
			<line class="st2" x1="1831" y1="811.5" x2="1866" y2="811.5"/>
		</g>
		<g>
			<line class="st2" x1="1848.5" y1="829" x2="1848.5" y2="794"/>
		</g>
	</g>
	<g>
		<g>
			<line class="st2" x1="45" y1="905.5" x2="80" y2="905.5"/>
		</g>
		<g>
			<line class="st2" x1="62.5" y1="923" x2="62.5" y2="888"/>
		</g>
	</g>
	<g>
		<g>
			<line class="st2" x1="139" y1="905.5" x2="174" y2="905.5"/>
		</g>
		<g>
			<line class="st2" x1="156.5" y1="923" x2="156.5" y2="888"/>
		</g>
	</g>
	<g>
		<g>
			<line class="st2" x1="233" y1="905.5" x2="268" y2="905.5"/>
		</g>
		<g>
			<line class="st2" x1="250.5" y1="923" x2="250.5" y2="888"/>
		</g>
	</g>
	<g>
		<g>
			<line class="st2" x1="327" y1="905.5" x2="362" y2="905.5"/>
		</g>
		<g>
			<line class="st2" x1="344.5" y1="923" x2="344.5" y2="888"/>
		</g>
	</g>
	<g>
		<g>
			<line class="st2" x1="421" y1="905.5" x2="456" y2="905.5"/>
		</g>
		<g>
			<line class="st2" x1="438.5" y1="923" x2="438.5" y2="888"/>
		</g>
	</g>
	<g>
		<g>
			<line class="st2" x1="515" y1="905.5" x2="550" y2="905.5"/>
		</g>
		<g>
			<line class="st2" x1="532.5" y1="923" x2="532.5" y2="888"/>
		</g>
	</g>
	<g>
		<g>
			<line class="st2" x1="609" y1="905.5" x2="644" y2="905.5"/>
		</g>
		<g>
			<line class="st2" x1="626.5" y1="923" x2="626.5" y2="888"/>
		</g>
	</g>
	<g>
		<g>
			<line class="st2" x1="703" y1="905.5" x2="738" y2="905.5"/>
		</g>
		<g>
			<line class="st2" x1="720.5" y1="923" x2="720.5" y2="888"/>
		</g>
	</g>
	<g>
		<g>
			<line class="st2" x1="797" y1="905.5" x2="832" y2="905.5"/>
		</g>
		<g>
			<line class="st2" x1="814.5" y1="923" x2="814.5" y2="888"/>
		</g>
	</g>
	<g>
		<g>
			<line class="st2" x1="891" y1="905.5" x2="926" y2="905.5"/>
		</g>
		<g>
			<line class="st2" x1="908.5" y1="923" x2="908.5" y2="888"/>
		</g>
	</g>
	<g>
		<g>
			<line class="st2" x1="985" y1="905.5" x2="1020" y2="905.5"/>
		</g>
		<g>
			<line class="st2" x1="1002.5" y1="923" x2="1002.5" y2="888"/>
		</g>
	</g>
	<g>
		<g>
			<line class="st2" x1="1079" y1="905.5" x2="1114" y2="905.5"/>
		</g>
		<g>
			<line class="st2" x1="1096.5" y1="923" x2="1096.5" y2="888"/>
		</g>
	</g>
	<g>
		<g>
			<line class="st2" x1="1173" y1="905.5" x2="1208" y2="905.5"/>
		</g>
		<g>
			<line class="st2" x1="1190.5" y1="923" x2="1190.5" y2="888"/>
		</g>
	</g>
	<g>
		<g>
			<line class="st2" x1="1267" y1="905.5" x2="1302" y2="905.5"/>
		</g>
		<g>
			<line class="st2" x1="1284.5" y1="923" x2="1284.5" y2="888"/>
		</g>
	</g>
	<g>
		<g>
			<line class="st2" x1="1361" y1="905.5" x2="1396" y2="905.5"/>
		</g>
		<g>
			<line class="st2" x1="1378.5" y1="923" x2="1378.5" y2="888"/>
		</g>
	</g>
	<g>
		<g>
			<line class="st2" x1="1455" y1="905.5" x2="1490" y2="905.5"/>
		</g>
		<g>
			<line class="st2" x1="1472.5" y1="923" x2="1472.5" y2="888"/>
		</g>
	</g>
	<g>
		<g>
			<line class="st2" x1="1549" y1="905.5" x2="1584" y2="905.5"/>
		</g>
		<g>
			<line class="st2" x1="1566.5" y1="923" x2="1566.5" y2="888"/>
		</g>
	</g>
	<g>
		<g>
			<line class="st2" x1="1643" y1="905.5" x2="1678" y2="905.5"/>
		</g>
		<g>
			<line class="st2" x1="1660.5" y1="923" x2="1660.5" y2="888"/>
		</g>
	</g>
	<g>
		<g>
			<line class="st2" x1="1737" y1="905.5" x2="1772" y2="905.5"/>
		</g>
		<g>
			<line class="st2" x1="1754.5" y1="923" x2="1754.5" y2="888"/>
		</g>
	</g>
	<g>
		<g>
			<line class="st2" x1="1831" y1="905.5" x2="1866" y2="905.5"/>
		</g>
		<g>
			<line class="st2" x1="1848.5" y1="923" x2="1848.5" y2="888"/>
		</g>
	</g>
	<g>
		<g>
			<line class="st2" x1="45" y1="999.5" x2="80" y2="999.5"/>
		</g>
		<g>
			<line class="st2" x1="62.5" y1="1017" x2="62.5" y2="982"/>
		</g>
	</g>
	<g>
		<g>
			<line class="st2" x1="139" y1="999.5" x2="174" y2="999.5"/>
		</g>
		<g>
			<line class="st2" x1="156.5" y1="1017" x2="156.5" y2="982"/>
		</g>
	</g>
	<g>
		<g>
			<line class="st2" x1="233" y1="999.5" x2="268" y2="999.5"/>
		</g>
		<g>
			<line class="st2" x1="250.5" y1="1017" x2="250.5" y2="982"/>
		</g>
	</g>
	<g>
		<g>
			<line class="st2" x1="327" y1="999.5" x2="362" y2="999.5"/>
		</g>
		<g>
			<line class="st2" x1="344.5" y1="1017" x2="344.5" y2="982"/>
		</g>
	</g>
	<g>
		<g>
			<line class="st2" x1="421" y1="999.5" x2="456" y2="999.5"/>
		</g>
		<g>
			<line class="st2" x1="438.5" y1="1017" x2="438.5" y2="982"/>
		</g>
	</g>
	<g>
		<g>
			<line class="st2" x1="515" y1="999.5" x2="550" y2="999.5"/>
		</g>
		<g>
			<line class="st2" x1="532.5" y1="1017" x2="532.5" y2="982"/>
		</g>
	</g>
	<g>
		<g>
			<line class="st2" x1="609" y1="999.5" x2="644" y2="999.5"/>
		</g>
		<g>
			<line class="st2" x1="626.5" y1="1017" x2="626.5" y2="982"/>
		</g>
	</g>
	<g>
		<g>
			<line class="st2" x1="703" y1="999.5" x2="738" y2="999.5"/>
		</g>
		<g>
			<line class="st2" x1="720.5" y1="1017" x2="720.5" y2="982"/>
		</g>
	</g>
	<g>
		<g>
			<line class="st2" x1="797" y1="999.5" x2="832" y2="999.5"/>
		</g>
		<g>
			<line class="st2" x1="814.5" y1="1017" x2="814.5" y2="982"/>
		</g>
	</g>
	<g>
		<g>
			<line class="st2" x1="891" y1="999.5" x2="926" y2="999.5"/>
		</g>
		<g>
			<line class="st2" x1="908.5" y1="1017" x2="908.5" y2="982"/>
		</g>
	</g>
	<g>
		<g>
			<line class="st2" x1="985" y1="999.5" x2="1020" y2="999.5"/>
		</g>
		<g>
			<line class="st2" x1="1002.5" y1="1017" x2="1002.5" y2="982"/>
		</g>
	</g>
	<g>
		<g>
			<line class="st2" x1="1079" y1="999.5" x2="1114" y2="999.5"/>
		</g>
		<g>
			<line class="st2" x1="1096.5" y1="1017" x2="1096.5" y2="982"/>
		</g>
	</g>
	<g>
		<g>
			<line class="st2" x1="1173" y1="999.5" x2="1208" y2="999.5"/>
		</g>
		<g>
			<line class="st2" x1="1190.5" y1="1017" x2="1190.5" y2="982"/>
		</g>
	</g>
	<g>
		<g>
			<line class="st2" x1="1267" y1="999.5" x2="1302" y2="999.5"/>
		</g>
		<g>
			<line class="st2" x1="1284.5" y1="1017" x2="1284.5" y2="982"/>
		</g>
	</g>
	<g>
		<g>
			<line class="st2" x1="1361" y1="999.5" x2="1396" y2="999.5"/>
		</g>
		<g>
			<line class="st2" x1="1378.5" y1="1017" x2="1378.5" y2="982"/>
		</g>
	</g>
	<g>
		<g>
			<line class="st2" x1="1455" y1="999.5" x2="1490" y2="999.5"/>
		</g>
		<g>
			<line class="st2" x1="1472.5" y1="1017" x2="1472.5" y2="982"/>
		</g>
	</g>
	<g>
		<g>
			<line class="st2" x1="1549" y1="999.5" x2="1584" y2="999.5"/>
		</g>
		<g>
			<line class="st2" x1="1566.5" y1="1017" x2="1566.5" y2="982"/>
		</g>
	</g>
	<g>
		<g>
			<line class="st2" x1="1643" y1="999.5" x2="1678" y2="999.5"/>
		</g>
		<g>
			<line class="st2" x1="1660.5" y1="1017" x2="1660.5" y2="982"/>
		</g>
	</g>
	<g>
		<g>
			<line class="st2" x1="1737" y1="999.5" x2="1772" y2="999.5"/>
		</g>
		<g>
			<line class="st2" x1="1754.5" y1="1017" x2="1754.5" y2="982"/>
		</g>
	</g>
	<g>
		<g>
			<line class="st2" x1="1831" y1="999.5" x2="1866" y2="999.5"/>
		</g>
		<g>
			<line class="st2" x1="1848.5" y1="1017" x2="1848.5" y2="982"/>
		</g>
	</g>
</g>
</svg>
